<svg xmlns="http://www.w3.org/2000/svg" xmlns:xlink="http://www.w3.org/1999/xlink" width="500" zoomAndPan="magnify" viewBox="0 0 375 374.999991" height="500" preserveAspectRatio="xMidYMid meet" version="1.0"><path fill="#6a3ea1" d="M 316.703125 270.445312 C 313.8125 268.398438 310.832031 266.46875 307.878906 264.507812 C 296.238281 256.785156 284.550781 249.125 272.867188 241.46875 C 260.214844 233.179688 247.5625 224.890625 234.964844 216.523438 C 231.074219 213.941406 227.179688 211.363281 223.308594 208.75 C 226.730469 207.089844 230.148438 205.421875 233.546875 203.710938 C 247.539062 196.671875 260.960938 188.976562 274.359375 180.878906 C 286.347656 173.628906 299.859375 169.242188 311.496094 161.40625 C 314.144531 159.625 314.742188 157.207031 313.925781 154.222656 C 312.511719 149.050781 309.140625 143.34375 306.285156 138.859375 C 305.804688 138.109375 305.277344 137.445312 304.714844 136.859375 C 299.25 128.058594 294.183594 118.984375 288.617188 110.25 C 285.410156 105.21875 282.058594 100.28125 278.429688 95.542969 C 275.601562 91.84375 272.355469 87.335938 268.367188 84.789062 C 263.554688 81.714844 258.8125 82.710938 254.496094 85.203125 C 252.246094 83.683594 249.648438 82.507812 246.523438 81.792969 C 236.289062 79.449219 223.632812 82.433594 214.085938 86.371094 C 203.914062 90.570312 197.773438 98.347656 190.445312 106.023438 C 187.996094 108.59375 186.621094 106.355469 185.066406 104.042969 C 183.644531 101.921875 181.980469 99.941406 180.3125 98.015625 C 176.050781 93.089844 170.378906 89.472656 164.394531 87.003906 C 155.78125 83.449219 143.433594 78.578125 133.957031 80.355469 C 133.179688 80.503906 132.433594 80.730469 131.707031 81.007812 C 129.464844 80.039062 127.109375 79.359375 124.453125 79.21875 C 119.1875 78.945312 114.316406 82.277344 110.371094 85.324219 C 100.539062 92.910156 92.976562 102.402344 84.273438 111.136719 C 77.980469 117.449219 71.671875 123.78125 65.980469 130.648438 C 63.878906 133.179688 61.667969 135.84375 59.769531 138.683594 C 59.390625 139.0625 59.027344 139.457031 58.679688 139.910156 C 54.28125 145.617188 51.726562 153.234375 50.464844 160.257812 C 49.328125 166.605469 50.375 170.703125 55.859375 174.21875 C 63.21875 178.9375 71.96875 181.667969 80.191406 184.425781 C 93.476562 188.875 106.808594 193.367188 119.863281 198.460938 C 130.257812 202.519531 140.652344 206.660156 151.019531 210.855469 C 145.980469 214.230469 140.921875 217.578125 135.863281 220.921875 C 120.160156 231.304688 104.390625 241.582031 88.667969 251.921875 C 79.140625 258.191406 69.269531 264.152344 60.089844 270.925781 C 56.433594 273.625 49.472656 281.832031 56.347656 284.605469 C 62.421875 287.058594 70.9375 285.824219 77.273438 285.515625 C 86.734375 285.058594 95.085938 284.640625 103.582031 280.324219 C 117.097656 273.460938 129.707031 264.511719 142.160156 255.925781 C 153.847656 247.867188 165.445312 239.621094 176.667969 230.921875 C 180.652344 227.835938 184.691406 224.894531 188.800781 222.035156 C 194.601562 226.027344 200.0625 230.40625 205.6875 234.644531 C 220.878906 246.09375 236.492188 257.035156 252.421875 267.425781 C 262.476562 273.980469 273.980469 283.066406 286.289062 284.433594 C 293.917969 285.285156 301.632812 285.746094 309.3125 285.769531 C 312.703125 285.78125 322.101562 286.609375 323.890625 282.472656 C 325.699219 278.277344 319.714844 272.570312 316.703125 270.445312 " fill-opacity="1" fill-rule="nonzero"/><path fill="#d3bde3" d="M 282.410156 150.613281 C 274.527344 153.1875 266.304688 154.425781 258.453125 157.261719 C 250.304688 160.207031 242.367188 163.738281 234.625 167.636719 C 227 171.472656 219.621094 175.671875 212.953125 181.03125 C 207.121094 185.714844 201.410156 190.25 194.996094 194.128906 C 194.121094 194.65625 193.34375 193.308594 194.199219 192.761719 C 201.691406 187.988281 207.972656 181.425781 214.929688 175.921875 C 221.378906 170.824219 228.871094 167 236.152344 163.238281 C 243.570312 159.40625 251.289062 156.027344 259.203125 153.359375 C 266.460938 150.910156 274.335938 148.160156 282.050781 147.933594 C 283.640625 147.886719 283.835938 150.148438 282.410156 150.613281 Z M 178.96875 196.53125 C 171.679688 192.125 164.917969 186.960938 157.476562 182.765625 C 150.066406 178.589844 142.503906 174.550781 134.800781 170.9375 C 117.65625 162.898438 99.410156 157.628906 81.253906 152.457031 C 80.652344 152.285156 80.75 151.238281 81.40625 151.328125 C 90.960938 152.609375 100.269531 155.835938 109.417969 158.773438 C 117.898438 161.496094 126.359375 164.113281 134.464844 167.839844 C 143.253906 171.875 151.976562 176.269531 160.335938 181.136719 C 167.179688 185.121094 174.648438 189.199219 180.140625 195.007812 C 180.890625 195.800781 179.929688 197.113281 178.96875 196.53125 Z M 187.140625 185.113281 L 133.453125 154.035156 L 75.410156 141.652344 C 75.390625 141.550781 75.371094 141.445312 75.351562 141.34375 C 75.070312 139.964844 72.703125 140.269531 72.882812 141.675781 C 73.714844 148.117188 73.582031 160.3125 80.855469 163.285156 C 86.632812 165.648438 93.003906 166.820312 99.003906 168.523438 C 106.40625 170.628906 113.789062 172.785156 121.230469 174.742188 C 134.675781 178.28125 147.496094 183.695312 160.085938 189.5625 C 165.886719 192.269531 171.703125 194.886719 176.839844 198.746094 C 180.742188 201.671875 184.417969 203.839844 189.398438 202.710938 C 193.960938 201.679688 198.042969 196.339844 201.574219 193.628906 C 206.753906 189.65625 212.234375 186.183594 217.875 182.902344 C 230.558594 175.535156 243.660156 169.15625 257.566406 164.453125 C 263.710938 162.378906 269.945312 160.933594 276.320312 159.808594 C 280.464844 159.078125 284.597656 158.503906 288.273438 156.320312 C 296.320312 151.546875 295.519531 141.640625 288.890625 136.160156 C 287.144531 134.714844 284.820312 136.21875 284.746094 137.878906 L 232.195312 150.542969 L 187.140625 185.113281 " fill-opacity="1" fill-rule="nonzero"/><path fill="#fcd9a2" d="M 257.742188 129.492188 C 252.246094 128.339844 247.695312 127.972656 242.191406 129.660156 C 236.253906 131.480469 230.597656 134.144531 225.261719 137.316406 C 215.210938 143.289062 205.398438 150.976562 199.078125 160.925781 C 198.515625 161.820312 197.113281 161.25 197.375 160.210938 C 199.191406 153.089844 206.441406 147.488281 211.773438 142.953125 C 216.085938 139.28125 220.894531 136.113281 225.847656 133.382812 C 231.746094 130.128906 238.144531 126.984375 244.8125 125.707031 C 249.320312 124.839844 255.289062 123.945312 258.890625 127.511719 C 259.773438 128.382812 258.863281 129.726562 257.742188 129.492188 Z M 197.886719 138.542969 C 206.289062 129.410156 215.703125 120.632812 226.433594 114.296875 C 234.847656 109.332031 247.238281 103.601562 256.59375 109.488281 C 257.144531 109.832031 256.988281 110.917969 256.234375 110.824219 C 244.289062 109.328125 234.378906 112.589844 224.453125 119.335938 C 215.449219 125.449219 207.585938 132.929688 199.394531 140.046875 C 198.359375 140.941406 196.953125 139.558594 197.886719 138.542969 Z M 200.8125 116.238281 C 205.019531 109.019531 214.210938 103.542969 221.625 100.226562 C 228.171875 97.296875 237.125 93.554688 244.421875 95.449219 C 245.230469 95.65625 245.1875 96.808594 244.421875 97.039062 C 240.710938 98.148438 236.757812 98.210938 233.015625 99.292969 C 228.644531 100.550781 224.351562 102.097656 220.320312 104.234375 C 213.464844 107.867188 208.144531 112.867188 201.988281 117.417969 C 201.265625 117.953125 200.40625 116.941406 200.8125 116.238281 Z M 189.851562 135.023438 C 189.824219 143.011719 189.640625 150.992188 189.382812 158.96875 C 189.164062 165.683594 189.355469 172.621094 188.066406 179.234375 C 187.851562 180.347656 186.34375 179.949219 186.234375 178.984375 C 185.351562 171.105469 186.359375 162.890625 186.625 154.980469 C 186.871094 147.664062 187.09375 140.34375 187.214844 133.019531 C 187.339844 125.625 186.566406 117.597656 187.984375 110.3125 C 188.097656 109.742188 189.023438 109.742188 189.136719 110.3125 C 190.671875 118.175781 189.882812 127.054688 189.851562 135.023438 Z M 174.253906 111.351562 C 164.734375 100.960938 150.46875 88.734375 135.199219 92.191406 C 133.613281 92.550781 132.941406 90.152344 134.527344 89.746094 C 149.65625 85.863281 168.421875 97.109375 176.207031 109.84375 C 176.941406 111.042969 175.214844 112.398438 174.253906 111.351562 Z M 167.769531 126.414062 C 156.859375 112.300781 139.675781 105.488281 122.503906 102.867188 C 121.148438 102.660156 121.5 100.5 122.820312 100.519531 C 132.128906 100.675781 141.664062 103.886719 149.890625 108.121094 C 157.492188 112.03125 165.507812 117.273438 169.136719 125.355469 C 169.511719 126.183594 168.421875 127.257812 167.769531 126.414062 Z M 165.214844 163.261719 C 160.5625 159.09375 156.246094 154.820312 150.957031 151.414062 C 146.222656 148.363281 141.320312 145.605469 136.351562 142.964844 C 125.148438 137.015625 114.355469 130.019531 101.3125 129.929688 C 100.335938 129.921875 100.179688 128.546875 101.089844 128.261719 C 107.335938 126.277344 114.214844 128.789062 119.902344 131.4375 C 125.960938 134.261719 131.851562 137.429688 137.769531 140.535156 C 147.605469 145.703125 161.21875 151.816406 166.585938 162.203125 C 167.046875 163.097656 165.960938 163.929688 165.214844 163.261719 Z M 112.980469 115.222656 C 122.796875 114.066406 132.847656 118.582031 141.21875 123.28125 C 149.898438 128.160156 158.230469 133.90625 165.609375 140.613281 C 166.632812 141.542969 165.25 143.382812 164.117188 142.546875 C 149.226562 131.546875 132.53125 117.292969 112.980469 117.398438 C 111.542969 117.40625 111.621094 115.378906 112.980469 115.222656 Z M 292.296875 138.644531 C 289.933594 132.996094 285.367188 128.859375 281.859375 123.925781 C 277.367188 117.609375 273.515625 110.800781 269.304688 104.296875 C 263.003906 94.570312 258.835938 84.609375 246.523438 81.792969 C 236.289062 79.449219 223.632812 82.433594 214.085938 86.371094 C 203.914062 90.566406 197.773438 98.347656 190.445312 106.023438 C 187.996094 108.59375 186.621094 106.355469 185.066406 104.042969 C 183.644531 101.921875 181.980469 99.941406 180.3125 98.015625 C 176.050781 93.089844 170.378906 89.472656 164.394531 87.003906 C 155.78125 83.449219 143.433594 78.578125 133.957031 80.355469 C 129.136719 81.257812 125.34375 85.023438 121.800781 88.1875 C 116.355469 93.050781 111.515625 98.558594 106.167969 103.527344 C 96.238281 112.765625 86.140625 121.777344 78.015625 132.71875 C 76.085938 135.320312 74.394531 138.078125 72.832031 140.914062 C 72.285156 141.90625 72.964844 143.207031 74.140625 143.195312 C 79.6875 143.140625 84.910156 144.777344 90.167969 146.359375 C 95.296875 147.902344 100.488281 149.167969 105.597656 150.78125 C 116.574219 154.253906 127.273438 158.738281 137.703125 163.597656 C 147.378906 168.101562 157.015625 172.65625 165.773438 178.820312 C 172.300781 183.417969 178.417969 191.292969 186.984375 191.570312 C 187.121094 191.632812 187.28125 191.660156 187.457031 191.648438 C 195.257812 191.03125 199.808594 182.613281 204.980469 177.691406 C 212.03125 170.984375 219.179688 164.273438 227.417969 159.039062 C 246.460938 146.941406 269.851562 146.058594 291.171875 140.632812 C 291.941406 140.433594 292.628906 139.449219 292.296875 138.644531 " fill-opacity="1" fill-rule="nonzero"/></svg>