<svg xmlns="http://www.w3.org/2000/svg" xmlns:xlink="http://www.w3.org/1999/xlink" width="500" zoomAndPan="magnify" viewBox="0 0 375 374.999991" height="500" preserveAspectRatio="xMidYMid meet" version="1.0"><defs><filter x="0%" y="0%" width="100%" height="100%" id="697b43cf6b"><feColorMatrix values="0 0 0 0 1 0 0 0 0 1 0 0 0 0 1 0 0 0 1 0" color-interpolation-filters="sRGB"/></filter><mask id="52efa4ad0c"><g filter="url(#697b43cf6b)"><rect x="-37.5" width="450" fill="#000000" y="-37.499999" height="449.999989" fill-opacity="0.2"/></g></mask><clipPath id="6675012382"><path d="M 1 0.199219 L 275.960938 0.199219 L 275.960938 207.320312 L 1 207.320312 Z M 1 0.199219 " clip-rule="nonzero"/></clipPath><clipPath id="f84548fee1"><path d="M 23 0.199219 L 244 0.199219 L 244 113 L 23 113 Z M 23 0.199219 " clip-rule="nonzero"/></clipPath><clipPath id="43e10d0e58"><rect x="0" width="276" y="0" height="208"/></clipPath></defs><g mask="url(#52efa4ad0c)"><g transform="matrix(1, 0, 0, 1, 49, 79)"><g clip-path="url(#43e10d0e58)"><g clip-path="url(#6675012382)"><path fill="#5e17eb" d="M 267.703125 191.445312 C 264.8125 189.398438 261.832031 187.46875 258.878906 185.507812 C 247.238281 177.785156 235.550781 170.125 223.867188 162.46875 C 211.214844 154.179688 198.5625 145.890625 185.964844 137.523438 C 182.074219 134.941406 178.179688 132.363281 174.308594 129.75 C 177.730469 128.089844 181.148438 126.421875 184.546875 124.710938 C 198.539062 117.671875 211.960938 109.976562 225.359375 101.878906 C 237.347656 94.628906 250.859375 90.242188 262.496094 82.40625 C 265.144531 80.625 265.742188 78.207031 264.925781 75.222656 C 263.511719 70.050781 260.140625 64.34375 257.285156 59.859375 C 256.804688 59.109375 256.277344 58.445312 255.714844 57.859375 C 250.25 49.058594 245.183594 39.984375 239.617188 31.25 C 236.410156 26.21875 233.058594 21.28125 229.429688 16.542969 C 226.601562 12.84375 223.355469 8.335938 219.367188 5.789062 C 214.554688 2.714844 209.8125 3.710938 205.496094 6.203125 C 203.246094 4.683594 200.648438 3.507812 197.523438 2.792969 C 187.289062 0.449219 174.632812 3.433594 165.085938 7.371094 C 154.914062 11.570312 148.773438 19.347656 141.445312 27.023438 C 138.996094 29.59375 137.621094 27.355469 136.066406 25.042969 C 134.644531 22.921875 132.980469 20.941406 131.3125 19.015625 C 127.050781 14.089844 121.378906 10.472656 115.394531 8.003906 C 106.78125 4.449219 94.433594 -0.421875 84.957031 1.355469 C 84.179688 1.503906 83.433594 1.730469 82.707031 2.007812 C 80.464844 1.039062 78.109375 0.359375 75.453125 0.21875 C 70.1875 -0.0546875 65.316406 3.277344 61.371094 6.324219 C 51.539062 13.910156 43.976562 23.402344 35.273438 32.136719 C 28.980469 38.449219 22.671875 44.78125 16.980469 51.648438 C 14.878906 54.179688 12.667969 56.84375 10.769531 59.683594 C 10.390625 60.0625 10.027344 60.457031 9.679688 60.910156 C 5.28125 66.617188 2.726562 74.234375 1.464844 81.257812 C 0.328125 87.605469 1.375 91.703125 6.859375 95.21875 C 14.21875 99.9375 22.96875 102.667969 31.191406 105.425781 C 44.476562 109.875 57.808594 114.367188 70.863281 119.460938 C 81.257812 123.519531 91.652344 127.660156 102.019531 131.855469 C 96.980469 135.230469 91.921875 138.578125 86.863281 141.921875 C 71.160156 152.304688 55.390625 162.582031 39.667969 172.921875 C 30.140625 179.191406 20.269531 185.152344 11.089844 191.925781 C 7.433594 194.625 0.472656 202.832031 7.347656 205.605469 C 13.421875 208.058594 21.9375 206.824219 28.273438 206.515625 C 37.734375 206.058594 46.085938 205.640625 54.582031 201.324219 C 68.097656 194.460938 80.707031 185.511719 93.160156 176.925781 C 104.847656 168.867188 116.445312 160.621094 127.667969 151.921875 C 131.652344 148.835938 135.691406 145.894531 139.800781 143.035156 C 145.601562 147.027344 151.0625 151.40625 156.6875 155.644531 C 171.878906 167.09375 187.492188 178.035156 203.421875 188.425781 C 213.476562 194.980469 224.980469 204.066406 237.289062 205.433594 C 244.917969 206.285156 252.632812 206.746094 260.3125 206.769531 C 263.703125 206.78125 273.101562 207.609375 274.890625 203.472656 C 276.699219 199.277344 270.714844 193.570312 267.703125 191.445312 " fill-opacity="1" fill-rule="nonzero"/></g><path fill="#d3bde3" d="M 233.410156 71.613281 C 225.527344 74.1875 217.304688 75.425781 209.453125 78.261719 C 201.304688 81.207031 193.367188 84.738281 185.625 88.636719 C 178 92.472656 170.621094 96.671875 163.953125 102.03125 C 158.121094 106.714844 152.410156 111.25 145.996094 115.128906 C 145.121094 115.65625 144.34375 114.308594 145.199219 113.761719 C 152.691406 108.988281 158.972656 102.425781 165.929688 96.921875 C 172.378906 91.824219 179.871094 88 187.152344 84.238281 C 194.570312 80.40625 202.289062 77.027344 210.203125 74.359375 C 217.460938 71.910156 225.335938 69.160156 233.050781 68.933594 C 234.640625 68.886719 234.835938 71.148438 233.410156 71.613281 Z M 129.96875 117.53125 C 122.679688 113.125 115.917969 107.960938 108.476562 103.765625 C 101.066406 99.589844 93.503906 95.550781 85.800781 91.9375 C 68.65625 83.898438 50.410156 78.628906 32.253906 73.457031 C 31.652344 73.285156 31.75 72.238281 32.40625 72.328125 C 41.960938 73.609375 51.269531 76.835938 60.417969 79.773438 C 68.898438 82.496094 77.359375 85.113281 85.464844 88.839844 C 94.253906 92.875 102.976562 97.269531 111.335938 102.136719 C 118.179688 106.121094 125.648438 110.199219 131.140625 116.007812 C 131.890625 116.800781 130.929688 118.113281 129.96875 117.53125 Z M 138.140625 106.113281 L 84.453125 75.035156 L 26.410156 62.652344 C 26.390625 62.550781 26.371094 62.445312 26.351562 62.34375 C 26.070312 60.964844 23.703125 61.269531 23.882812 62.675781 C 24.714844 69.117188 24.582031 81.3125 31.855469 84.285156 C 37.632812 86.648438 44.003906 87.820312 50.003906 89.523438 C 57.40625 91.628906 64.789062 93.785156 72.230469 95.742188 C 85.675781 99.28125 98.496094 104.695312 111.085938 110.5625 C 116.886719 113.269531 122.703125 115.886719 127.839844 119.746094 C 131.742188 122.671875 135.417969 124.839844 140.398438 123.710938 C 144.960938 122.679688 149.042969 117.339844 152.574219 114.628906 C 157.753906 110.65625 163.234375 107.183594 168.875 103.902344 C 181.558594 96.535156 194.660156 90.15625 208.566406 85.453125 C 214.710938 83.378906 220.945312 81.933594 227.320312 80.808594 C 231.464844 80.078125 235.597656 79.503906 239.273438 77.320312 C 247.320312 72.546875 246.519531 62.640625 239.890625 57.160156 C 238.144531 55.714844 235.820312 57.21875 235.746094 58.878906 L 183.195312 71.542969 L 138.140625 106.113281 " fill-opacity="1" fill-rule="nonzero"/><g clip-path="url(#f84548fee1)"><path fill="#fcd9a2" d="M 208.742188 50.492188 C 203.246094 49.339844 198.695312 48.972656 193.191406 50.660156 C 187.253906 52.480469 181.597656 55.144531 176.261719 58.316406 C 166.210938 64.289062 156.398438 71.976562 150.078125 81.925781 C 149.515625 82.820312 148.113281 82.25 148.375 81.210938 C 150.191406 74.089844 157.441406 68.488281 162.773438 63.953125 C 167.085938 60.28125 171.894531 57.113281 176.847656 54.382812 C 182.746094 51.128906 189.144531 47.984375 195.8125 46.707031 C 200.320312 45.839844 206.289062 44.945312 209.890625 48.511719 C 210.773438 49.382812 209.863281 50.726562 208.742188 50.492188 Z M 148.886719 59.542969 C 157.289062 50.410156 166.703125 41.632812 177.433594 35.296875 C 185.847656 30.332031 198.238281 24.601562 207.59375 30.488281 C 208.144531 30.832031 207.988281 31.917969 207.234375 31.824219 C 195.289062 30.328125 185.378906 33.589844 175.453125 40.335938 C 166.449219 46.449219 158.585938 53.929688 150.394531 61.046875 C 149.359375 61.941406 147.953125 60.558594 148.886719 59.542969 Z M 151.8125 37.238281 C 156.019531 30.019531 165.210938 24.542969 172.625 21.226562 C 179.171875 18.296875 188.125 14.554688 195.421875 16.449219 C 196.230469 16.65625 196.1875 17.808594 195.421875 18.039062 C 191.710938 19.148438 187.757812 19.210938 184.015625 20.292969 C 179.644531 21.550781 175.351562 23.097656 171.320312 25.234375 C 164.464844 28.867188 159.144531 33.867188 152.988281 38.417969 C 152.265625 38.953125 151.40625 37.941406 151.8125 37.238281 Z M 140.851562 56.023438 C 140.824219 64.011719 140.640625 71.992188 140.382812 79.96875 C 140.164062 86.683594 140.355469 93.621094 139.066406 100.234375 C 138.851562 101.347656 137.34375 100.949219 137.234375 99.984375 C 136.351562 92.105469 137.359375 83.890625 137.625 75.980469 C 137.871094 68.664062 138.09375 61.34375 138.214844 54.019531 C 138.339844 46.625 137.566406 38.597656 138.984375 31.3125 C 139.097656 30.742188 140.023438 30.742188 140.136719 31.3125 C 141.671875 39.175781 140.882812 48.054688 140.851562 56.023438 Z M 125.253906 32.351562 C 115.734375 21.960938 101.46875 9.734375 86.199219 13.191406 C 84.613281 13.550781 83.941406 11.152344 85.527344 10.746094 C 100.65625 6.863281 119.421875 18.109375 127.207031 30.84375 C 127.941406 32.042969 126.214844 33.398438 125.253906 32.351562 Z M 118.769531 47.414062 C 107.859375 33.300781 90.675781 26.488281 73.503906 23.867188 C 72.148438 23.660156 72.5 21.5 73.820312 21.519531 C 83.128906 21.675781 92.664062 24.886719 100.890625 29.121094 C 108.492188 33.03125 116.507812 38.273438 120.136719 46.355469 C 120.511719 47.183594 119.421875 48.257812 118.769531 47.414062 Z M 116.214844 84.261719 C 111.5625 80.09375 107.246094 75.820312 101.957031 72.414062 C 97.222656 69.363281 92.320312 66.605469 87.351562 63.964844 C 76.148438 58.015625 65.355469 51.019531 52.3125 50.929688 C 51.335938 50.921875 51.179688 49.546875 52.089844 49.261719 C 58.335938 47.277344 65.214844 49.789062 70.902344 52.4375 C 76.960938 55.261719 82.851562 58.429688 88.769531 61.535156 C 98.605469 66.703125 112.21875 72.816406 117.585938 83.203125 C 118.046875 84.097656 116.960938 84.929688 116.214844 84.261719 Z M 63.980469 36.222656 C 73.796875 35.066406 83.847656 39.582031 92.21875 44.28125 C 100.898438 49.160156 109.230469 54.90625 116.609375 61.613281 C 117.632812 62.542969 116.25 64.382812 115.117188 63.546875 C 100.226562 52.546875 83.53125 38.292969 63.980469 38.398438 C 62.542969 38.40625 62.621094 36.378906 63.980469 36.222656 Z M 243.296875 59.644531 C 240.933594 53.996094 236.367188 49.859375 232.859375 44.925781 C 228.367188 38.609375 224.515625 31.800781 220.304688 25.296875 C 214.003906 15.570312 209.835938 5.609375 197.523438 2.792969 C 187.289062 0.449219 174.632812 3.433594 165.085938 7.371094 C 154.914062 11.566406 148.773438 19.347656 141.445312 27.023438 C 138.996094 29.59375 137.621094 27.355469 136.066406 25.042969 C 134.644531 22.921875 132.980469 20.941406 131.3125 19.015625 C 127.050781 14.089844 121.378906 10.472656 115.394531 8.003906 C 106.78125 4.449219 94.433594 -0.421875 84.957031 1.355469 C 80.136719 2.257812 76.34375 6.023438 72.800781 9.1875 C 67.355469 14.050781 62.515625 19.558594 57.167969 24.527344 C 47.238281 33.765625 37.140625 42.777344 29.015625 53.71875 C 27.085938 56.320312 25.394531 59.078125 23.832031 61.914062 C 23.285156 62.90625 23.964844 64.207031 25.140625 64.195312 C 30.6875 64.140625 35.910156 65.777344 41.167969 67.359375 C 46.296875 68.902344 51.488281 70.167969 56.597656 71.78125 C 67.574219 75.253906 78.273438 79.738281 88.703125 84.597656 C 98.378906 89.101562 108.015625 93.65625 116.773438 99.820312 C 123.300781 104.417969 129.417969 112.292969 137.984375 112.570312 C 138.121094 112.632812 138.28125 112.660156 138.457031 112.648438 C 146.257812 112.03125 150.808594 103.613281 155.980469 98.691406 C 163.03125 91.984375 170.179688 85.273438 178.417969 80.039062 C 197.460938 67.941406 220.851562 67.058594 242.171875 61.632812 C 242.941406 61.433594 243.628906 60.449219 243.296875 59.644531 " fill-opacity="1" fill-rule="nonzero"/></g></g></g></g></svg>